<svg width="30" height="30" viewBox="0 0 500 500" fill="none" xmlns="http://www.w3.org/2000/svg">
<path d="M276.785 229.166V104.166L214.285 41.666L151.785 104.166V145.833H26.7852V437.499H401.785V229.166H276.785ZM110.118 395.833H68.4518V354.166H110.118V395.833ZM110.118 312.499H68.4518V270.833H110.118V312.499ZM110.118 229.166H68.4518V187.499H110.118V229.166ZM235.118 395.833H193.452V354.166H235.118V395.833ZM235.118 312.499H193.452V270.833H235.118V312.499ZM235.118 229.166H193.452V187.499H235.118V229.166ZM235.118 145.833H193.452V104.166H235.118V145.833ZM360.118 395.833H318.452V354.166H360.118V395.833ZM360.118 312.499H318.452V270.833H360.118V312.499Z" fill="#59C09B"/>
</svg>
