<svg width="25" height="25" viewBox="0 0 500 500" fill="none" xmlns="http://www.w3.org/2000/svg">
<path d="M370.052 306.659C370.052 328.562 376.276 337.297 392.552 337.297C428.828 337.297 451.927 291.015 451.927 214.044C451.927 96.3965 366.302 40.0761 259.401 40.0761C149.427 40.0761 49.4011 113.918 49.4011 253.468C49.4011 386.759 136.901 459.35 271.276 459.35C316.901 459.35 347.526 454.344 394.375 438.699L404.427 480.601C358.177 495.646 308.75 500 270.651 500C94.4011 500 0 403.004 0 253.442C0 102.628 109.401 0 260.026 0C416.901 0 500 93.8673 500 209.011C500 306.633 469.401 381.101 373.151 381.101C329.375 381.101 300.651 363.579 296.901 324.755C285.651 367.934 255.651 381.101 215 381.101C160.625 381.101 115 339.148 115 254.693C115 169.587 155.026 117.021 226.901 117.021C265.026 117.021 288.776 132.04 299.349 155.82L317.5 122.653H370V306.659H370.052ZM293.203 224.056C293.203 189.664 267.552 175.245 246.302 175.245C223.177 175.245 197.578 193.992 197.578 249.087C197.578 292.892 216.953 317.298 246.302 317.298C266.927 317.298 293.203 304.156 293.203 267.861V224.056Z" fill="#59C09B"/>
</svg>
