<svg width="25" height="25" viewBox="0 0 500 500" fill="none" xmlns="http://www.w3.org/2000/svg">
<path d="M375 166.667H416.667C422.192 166.667 427.491 168.862 431.398 172.769C435.305 176.676 437.5 181.975 437.5 187.501V437.501C437.5 443.026 435.305 448.325 431.398 452.232C427.491 456.139 422.192 458.334 416.667 458.334H83.3333C77.808 458.334 72.5089 456.139 68.6019 452.232C64.6949 448.325 62.5 443.026 62.5 437.501V187.501C62.5 181.975 64.6949 176.676 68.6019 172.769C72.5089 168.862 77.808 166.667 83.3333 166.667H125V145.834C125 112.682 138.17 80.8877 161.612 57.4456C185.054 34.0036 216.848 20.834 250 20.834C283.152 20.834 314.946 34.0036 338.388 57.4456C361.83 80.8877 375 112.682 375 145.834V166.667ZM333.333 166.667V145.834C333.333 123.733 324.554 102.536 308.926 86.9084C293.298 71.2804 272.101 62.5007 250 62.5007C227.899 62.5007 206.702 71.2804 191.074 86.9084C175.446 102.536 166.667 123.733 166.667 145.834V166.667H333.333ZM229.167 291.667V333.334H270.833V291.667H229.167ZM145.833 291.667V333.334H187.5V291.667H145.833ZM312.5 291.667V333.334H354.167V291.667H312.5Z" fill="#59C09B"/>
</svg>
