<svg width="30" height="30" viewBox="0 0 500 500" fill="none" xmlns="http://www.w3.org/2000/svg">
<path d="M421.874 345.937V154.062C432.579 151.349 442.374 145.848 450.262 138.12C458.15 130.391 463.85 120.711 466.781 110.064C469.711 99.4163 469.769 88.1826 466.947 77.506C464.125 66.8294 458.525 57.0911 450.716 49.2824C442.907 41.4737 433.169 35.8733 422.492 33.0515C411.816 30.2296 400.582 30.287 389.935 33.2178C379.288 36.1485 369.607 41.8481 361.878 49.7362C354.15 57.6243 348.649 67.4193 345.937 78.1242H154.062C151.349 67.4193 145.848 57.6243 138.12 49.7362C130.391 41.8481 120.711 36.1485 110.064 33.2178C99.4163 30.287 88.1826 30.2296 77.506 33.0515C66.8294 35.8733 57.0911 41.4737 49.2824 49.2824C41.4737 57.0911 35.8733 66.8294 33.0515 77.506C30.2296 88.1826 30.287 99.4163 33.2178 110.064C36.1485 120.711 41.8481 130.391 49.7362 138.12C57.6243 145.848 67.4193 151.349 78.1242 154.062V345.937C67.4193 348.649 57.6243 354.15 49.7362 361.878C41.8481 369.607 36.1485 379.288 33.2178 389.935C30.287 400.582 30.2296 411.816 33.0515 422.492C35.8733 433.169 41.4737 442.907 49.2824 450.716C57.0911 458.525 66.8294 464.125 77.506 466.947C88.1826 469.769 99.4163 469.711 110.064 466.781C120.711 463.85 130.391 458.15 138.12 450.262C145.848 442.374 151.349 432.579 154.062 421.874H345.937C348.649 432.579 354.15 442.374 361.878 450.262C369.607 458.15 379.288 463.85 389.935 466.781C400.582 469.711 411.816 469.769 422.492 466.947C433.169 464.125 442.907 458.525 450.716 450.716C458.525 442.907 464.125 433.169 466.947 422.492C469.769 411.816 469.711 400.582 466.781 389.935C463.85 379.288 458.15 369.607 450.262 361.878C442.374 354.15 432.579 348.649 421.874 345.937ZM406.249 62.4992C412.43 62.4992 418.472 64.3319 423.611 67.7657C428.75 71.1995 432.755 76.0801 435.12 81.7903C437.486 87.5005 438.104 93.7838 436.899 99.8457C435.693 105.908 432.717 111.476 428.346 115.846C423.976 120.217 418.408 123.193 412.346 124.399C406.284 125.604 400 124.986 394.29 122.62C388.58 120.255 383.7 116.25 380.266 111.111C376.832 105.972 374.999 99.9298 374.999 93.7492C374.999 85.4611 378.292 77.5126 384.152 71.6521C390.013 65.7916 397.961 62.4992 406.249 62.4992ZM62.4992 93.7492C62.4992 87.5685 64.3319 81.5266 67.7657 76.3876C71.1995 71.2486 76.0801 67.2432 81.7903 64.8779C87.5005 62.5127 93.7838 61.8938 99.8457 63.0996C105.908 64.3054 111.476 67.2817 115.846 71.6521C120.217 76.0225 123.193 81.5907 124.399 87.6526C125.604 93.7145 124.986 99.9978 122.62 105.708C120.255 111.418 116.25 116.299 111.111 119.733C105.972 123.166 99.9298 124.999 93.7492 124.999C85.4611 124.999 77.5126 121.707 71.6521 115.846C65.7916 109.986 62.4992 102.037 62.4992 93.7492ZM93.7492 437.499C87.5685 437.499 81.5266 435.666 76.3876 432.233C71.2486 428.799 67.2432 423.918 64.8779 418.208C62.5127 412.498 61.8938 406.215 63.0996 400.153C64.3054 394.091 67.2817 388.522 71.6521 384.152C76.0225 379.782 81.5907 376.805 87.6526 375.6C93.7145 374.394 99.9978 375.013 105.708 377.378C111.418 379.743 116.299 383.749 119.733 388.888C123.166 394.027 124.999 400.069 124.999 406.249C124.999 414.537 121.707 422.486 115.846 428.346C109.986 434.207 102.037 437.499 93.7492 437.499ZM345.937 390.624H154.062C151.256 379.876 145.637 370.071 137.782 362.216C129.928 354.362 120.122 348.742 109.374 345.937V154.062C120.122 151.256 129.928 145.637 137.782 137.782C145.637 129.928 151.256 120.122 154.062 109.374H345.937C348.742 120.122 354.362 129.928 362.216 137.782C370.071 145.637 379.876 151.256 390.624 154.062V345.937C379.876 348.742 370.071 354.362 362.216 362.216C354.362 370.071 348.742 379.876 345.937 390.624ZM406.249 437.499C400.069 437.499 394.027 435.666 388.888 432.233C383.749 428.799 379.743 423.918 377.378 418.208C375.013 412.498 374.394 406.215 375.6 400.153C376.805 394.091 379.782 388.522 384.152 384.152C388.522 379.782 394.091 376.805 400.153 375.6C406.215 374.394 412.498 375.013 418.208 377.378C423.918 379.743 428.799 383.749 432.233 388.888C435.666 394.027 437.499 400.069 437.499 406.249C437.499 414.537 434.207 422.486 428.346 428.346C422.486 434.207 414.537 437.499 406.249 437.499Z" fill="#59C09B"/>
<path d="M328.125 171.875H171.875V203.125H234.375V343.75H265.625V203.125H328.125V171.875Z" fill="#59C09B"/>
</svg>
