<svg width="30" height="30" viewBox="0 0 500 496" fill="none" xmlns="http://www.w3.org/2000/svg">
<path d="M460.463 370.654L360.632 280.694C355.913 276.443 349.712 274.176 343.338 274.371C336.964 274.567 330.916 277.209 326.471 281.741L267.703 341.641C253.557 338.964 225.118 330.177 195.844 301.237C166.57 272.2 157.705 243.941 155.077 230.019L215.466 171.749C220.044 167.347 222.715 161.352 222.912 155.033C223.109 148.714 220.817 142.567 216.522 137.893L125.778 38.9759C121.482 34.2871 115.51 31.4429 109.132 31.0475C102.753 30.6521 96.4702 32.7367 91.6175 36.8584L38.3254 82.1547C34.0795 86.378 31.5452 91.9989 31.2034 97.9512C30.835 104.036 23.8113 248.176 136.584 359.993C234.966 457.474 358.201 464.605 392.141 464.605C397.102 464.605 400.147 464.459 400.957 464.411C406.962 464.077 412.631 461.555 416.871 457.328L462.55 404.486C466.726 399.692 468.844 393.47 468.454 387.149C468.064 380.828 465.196 374.908 460.463 370.654V370.654Z" fill="#59C09B"/>
</svg>
